<svg height="512pt" viewBox="0 0 512 512" width="512pt" xmlns="http://www.w3.org/2000/svg" xmlns:xlink="http://www.w3.org/1999/xlink"><linearGradient id="a" gradientTransform="matrix(1 0 0 -1 0 -18006)" gradientUnits="userSpaceOnUse" x1="0" x2="512" y1="-18262" y2="-18262"><stop offset="0" stop-color="#00f38d"/><stop offset="1" stop-color="#009eff"/></linearGradient><path d="m512 256c0 141.386719-114.613281 256-256 256s-256-114.613281-256-256 114.613281-256 256-256 256 114.613281 256 256zm0 0" fill="url(#a)"/><path d="m360.34375 292.253906-21.214844 21.210938 31.964844 31.964844h-36.40625c-17.355469 0-33.714844-8.257813-43.917969-22.132813l-37.964843-67.289063 37.742187-67.230468c10.242187-13.921875 26.597656-22.207032 43.910156-22.207032h36.636719l-31.964844 31.964844 21.214844 21.210938 68.175781-68.175782-68.175781-68.175781-21.214844 21.210938 31.964844 31.964843h-36.636719c-27.234375 0-52.945312 13.230469-68.773437 35.390626-.316406.441406-.605469.902343-.871094 1.378906l-29.25 52.097656-29.410156-52.128906c-.261719-.464844-.546875-.914063-.855469-1.347656-15.832031-22.160157-41.539063-35.390626-68.773437-35.390626h-54.828126v30h54.828126c17.3125 0 33.671874 8.292969 43.917968 22.21875l37.9375 67.253907-37.714844 67.179687c-10.242187 13.921875-26.597656 22.207032-43.90625 22.207032h-55.0625v30h55.0625c27.234376 0 52.941407-13.230469 68.769532-35.390626.316406-.441406.609375-.902343.875-1.378906l29.222656-52.050781 29.429688 52.167969c.261718.464844.550781.914062.859374 1.351562 15.789063 22.101563 41.5 35.300782 68.769532 35.300782h36.410156l-31.964844 31.964843 21.214844 21.210938 68.175781-68.175781zm0 0" fill="#fff"/></svg>